<svg width="3840" height="2160" viewBox="0 0 3840 2160" fill="none" xmlns="http://www.w3.org/2000/svg">
<mask id="mask0" mask-type="alpha" maskUnits="userSpaceOnUse" x="0" y="0" width="3840" height="2160">
<rect width="3840" height="2160" fill="#16242F"/>
</mask>
<g mask="url(#mask0)">
<path opacity="0.5" d="M403.35 -6441.5C448.673 -6477.67 514.74 -6470.26 550.916 -6424.94L3929.87 -2191.58C3954.86 -2160.26 3959.86 -2117.46 3942.75 -2081.23L2596.93 767.782C2583.06 797.146 2556.38 818.439 2524.68 825.455L-551.794 1506.19C-590.913 1514.85 -631.549 1500.49 -656.543 1469.18L-4035.5 -2764.18C-4071.67 -2809.51 -4064.26 -2875.57 -4018.93 -2911.75L403.35 -6441.5Z" fill="#213545"/>
<path opacity="0.5" d="M3437.3 8601.71C3391.98 8637.88 3325.91 8630.47 3289.73 8585.15L-89.2215 4351.79C-114.215 4320.47 -119.21 4277.67 -102.098 4241.44L1243.72 1392.43C1257.59 1363.07 1284.26 1341.77 1315.97 1334.76L4392.44 654.016C4431.56 645.36 4472.2 659.721 4497.19 691.035L7876.15 4924.39C7912.32 4969.72 7904.91 5035.78 7859.58 5071.96L3437.3 8601.71Z" fill="#213545"/>
</g>
</svg>
